<mxfile host="app.diagrams.net" modified="2022-05-25T06:33:43.941Z" agent="5.0 (Macintosh; Intel Mac OS X 10_15_7) AppleWebKit/537.36 (KHTML, like Gecko) Chrome/101.0.4951.64 Safari/537.36" etag="h7k6w34GwJLsLdxY_C0m" version="17.5.0" type="github">
  <diagram id="sdrsDHgVGE5aCU9E4UJP" name="Page-1">
    <mxGraphModel dx="1248" dy="619" grid="1" gridSize="10" guides="1" tooltips="1" connect="1" arrows="1" fold="1" page="1" pageScale="1" pageWidth="1654" pageHeight="1169" math="0" shadow="0">
      <root>
        <mxCell id="0" />
        <mxCell id="1" parent="0" />
        <mxCell id="mlAE84OE1QJgXeSvvqJd-1" value="" style="rounded=0;whiteSpace=wrap;html=1;" vertex="1" parent="1">
          <mxGeometry x="200" y="100" width="1040" height="840" as="geometry" />
        </mxCell>
        <mxCell id="mlAE84OE1QJgXeSvvqJd-6" value="#2&amp;nbsp; &amp;nbsp;美麗邂逅&amp;nbsp; &amp;nbsp; &amp;nbsp; &amp;nbsp; &amp;nbsp;潘/東&amp;nbsp; &amp;nbsp; &amp;nbsp; &amp;nbsp; &amp;nbsp; 2.3/1.4" style="text;html=1;strokeColor=none;fillColor=none;align=left;verticalAlign=middle;whiteSpace=wrap;rounded=0;fontSize=24;" vertex="1" parent="1">
          <mxGeometry x="250" y="140" width="690" height="50" as="geometry" />
        </mxCell>
        <mxCell id="mlAE84OE1QJgXeSvvqJd-7" value="場地" style="shape=table;startSize=30;container=1;collapsible=0;childLayout=tableLayout;fontStyle=1;align=center;fontSize=20;" vertex="1" parent="1">
          <mxGeometry x="250" y="220" width="940" height="240" as="geometry" />
        </mxCell>
        <mxCell id="mlAE84OE1QJgXeSvvqJd-8" value="" style="shape=tableRow;horizontal=0;startSize=0;swimlaneHead=0;swimlaneBody=0;top=0;left=0;bottom=0;right=0;collapsible=0;dropTarget=0;fillColor=none;points=[[0,0.5],[1,0.5]];portConstraint=eastwest;fontSize=20;" vertex="1" parent="mlAE84OE1QJgXeSvvqJd-7">
          <mxGeometry y="30" width="940" height="70" as="geometry" />
        </mxCell>
        <mxCell id="mlAE84OE1QJgXeSvvqJd-9" value="檔位" style="shape=partialRectangle;html=1;whiteSpace=wrap;connectable=0;fillColor=none;top=0;left=0;bottom=0;right=0;overflow=hidden;fontSize=20;" vertex="1" parent="mlAE84OE1QJgXeSvvqJd-8">
          <mxGeometry width="236" height="70" as="geometry">
            <mxRectangle width="236" height="70" as="alternateBounds" />
          </mxGeometry>
        </mxCell>
        <mxCell id="mlAE84OE1QJgXeSvvqJd-10" value="1" style="shape=partialRectangle;html=1;whiteSpace=wrap;connectable=0;fillColor=none;top=0;left=0;bottom=0;right=0;overflow=hidden;fontSize=20;" vertex="1" parent="mlAE84OE1QJgXeSvvqJd-8">
          <mxGeometry x="236" width="234" height="70" as="geometry">
            <mxRectangle width="234" height="70" as="alternateBounds" />
          </mxGeometry>
        </mxCell>
        <mxCell id="mlAE84OE1QJgXeSvvqJd-11" value="1號檔利放頭馬&lt;br&gt;此馬匹過往3次同程，均在早段領前" style="shape=partialRectangle;html=1;whiteSpace=wrap;connectable=0;fillColor=none;top=0;left=0;bottom=0;right=0;overflow=hidden;fontSize=20;" vertex="1" parent="mlAE84OE1QJgXeSvvqJd-8">
          <mxGeometry x="470" width="470" height="70" as="geometry">
            <mxRectangle width="470" height="70" as="alternateBounds" />
          </mxGeometry>
        </mxCell>
        <mxCell id="mlAE84OE1QJgXeSvvqJd-12" value="" style="shape=tableRow;horizontal=0;startSize=0;swimlaneHead=0;swimlaneBody=0;top=0;left=0;bottom=0;right=0;collapsible=0;dropTarget=0;fillColor=none;points=[[0,0.5],[1,0.5]];portConstraint=eastwest;fontSize=20;" vertex="1" parent="mlAE84OE1QJgXeSvvqJd-7">
          <mxGeometry y="100" width="940" height="70" as="geometry" />
        </mxCell>
        <mxCell id="mlAE84OE1QJgXeSvvqJd-13" value="長度" style="shape=partialRectangle;html=1;whiteSpace=wrap;connectable=0;fillColor=none;top=0;left=0;bottom=0;right=0;overflow=hidden;fontSize=20;" vertex="1" parent="mlAE84OE1QJgXeSvvqJd-12">
          <mxGeometry width="236" height="70" as="geometry">
            <mxRectangle width="236" height="70" as="alternateBounds" />
          </mxGeometry>
        </mxCell>
        <mxCell id="mlAE84OE1QJgXeSvvqJd-14" value="1650" style="shape=partialRectangle;html=1;whiteSpace=wrap;connectable=0;fillColor=none;top=0;left=0;bottom=0;right=0;overflow=hidden;fontSize=20;" vertex="1" parent="mlAE84OE1QJgXeSvvqJd-12">
          <mxGeometry x="236" width="234" height="70" as="geometry">
            <mxRectangle width="234" height="70" as="alternateBounds" />
          </mxGeometry>
        </mxCell>
        <mxCell id="mlAE84OE1QJgXeSvvqJd-15" value="過往3次均跑同程，獲2次位置" style="shape=partialRectangle;html=1;whiteSpace=wrap;connectable=0;fillColor=none;top=0;left=0;bottom=0;right=0;overflow=hidden;fontSize=20;" vertex="1" parent="mlAE84OE1QJgXeSvvqJd-12">
          <mxGeometry x="470" width="470" height="70" as="geometry">
            <mxRectangle width="470" height="70" as="alternateBounds" />
          </mxGeometry>
        </mxCell>
        <mxCell id="mlAE84OE1QJgXeSvvqJd-16" value="" style="shape=tableRow;horizontal=0;startSize=0;swimlaneHead=0;swimlaneBody=0;top=0;left=0;bottom=0;right=0;collapsible=0;dropTarget=0;fillColor=none;points=[[0,0.5],[1,0.5]];portConstraint=eastwest;fontSize=20;" vertex="1" parent="mlAE84OE1QJgXeSvvqJd-7">
          <mxGeometry y="170" width="940" height="70" as="geometry" />
        </mxCell>
        <mxCell id="mlAE84OE1QJgXeSvvqJd-17" value="地點" style="shape=partialRectangle;html=1;whiteSpace=wrap;connectable=0;fillColor=none;top=0;left=0;bottom=0;right=0;overflow=hidden;fontSize=20;" vertex="1" parent="mlAE84OE1QJgXeSvvqJd-16">
          <mxGeometry width="236" height="70" as="geometry">
            <mxRectangle width="236" height="70" as="alternateBounds" />
          </mxGeometry>
        </mxCell>
        <mxCell id="mlAE84OE1QJgXeSvvqJd-18" value="跑馬地草地" style="shape=partialRectangle;html=1;whiteSpace=wrap;connectable=0;fillColor=none;top=0;left=0;bottom=0;right=0;overflow=hidden;fontSize=20;" vertex="1" parent="mlAE84OE1QJgXeSvvqJd-16">
          <mxGeometry x="236" width="234" height="70" as="geometry">
            <mxRectangle width="234" height="70" as="alternateBounds" />
          </mxGeometry>
        </mxCell>
        <mxCell id="mlAE84OE1QJgXeSvvqJd-19" value="過住6次均跑同場" style="shape=partialRectangle;html=1;whiteSpace=wrap;connectable=0;fillColor=none;top=0;left=0;bottom=0;right=0;overflow=hidden;fontSize=20;" vertex="1" parent="mlAE84OE1QJgXeSvvqJd-16">
          <mxGeometry x="470" width="470" height="70" as="geometry">
            <mxRectangle width="470" height="70" as="alternateBounds" />
          </mxGeometry>
        </mxCell>
        <mxCell id="mlAE84OE1QJgXeSvvqJd-20" value="馬匹" style="shape=table;startSize=30;container=1;collapsible=0;childLayout=tableLayout;fontStyle=1;align=center;fontSize=20;" vertex="1" parent="1">
          <mxGeometry x="250" y="490" width="940" height="170" as="geometry" />
        </mxCell>
        <mxCell id="mlAE84OE1QJgXeSvvqJd-33" style="shape=tableRow;horizontal=0;startSize=0;swimlaneHead=0;swimlaneBody=0;top=0;left=0;bottom=0;right=0;collapsible=0;dropTarget=0;fillColor=none;points=[[0,0.5],[1,0.5]];portConstraint=eastwest;fontSize=20;" vertex="1" parent="mlAE84OE1QJgXeSvvqJd-20">
          <mxGeometry y="30" width="940" height="70" as="geometry" />
        </mxCell>
        <mxCell id="mlAE84OE1QJgXeSvvqJd-34" value="操練" style="shape=partialRectangle;html=1;whiteSpace=wrap;connectable=0;fillColor=none;top=0;left=0;bottom=0;right=0;overflow=hidden;fontSize=20;" vertex="1" parent="mlAE84OE1QJgXeSvvqJd-33">
          <mxGeometry width="236" height="70" as="geometry">
            <mxRectangle width="236" height="70" as="alternateBounds" />
          </mxGeometry>
        </mxCell>
        <mxCell id="mlAE84OE1QJgXeSvvqJd-35" value="-" style="shape=partialRectangle;html=1;whiteSpace=wrap;connectable=0;fillColor=none;top=0;left=0;bottom=0;right=0;overflow=hidden;fontSize=20;" vertex="1" parent="mlAE84OE1QJgXeSvvqJd-33">
          <mxGeometry x="236" width="234" height="70" as="geometry">
            <mxRectangle width="234" height="70" as="alternateBounds" />
          </mxGeometry>
        </mxCell>
        <mxCell id="mlAE84OE1QJgXeSvvqJd-36" value="27/4 後沒有試閘" style="shape=partialRectangle;html=1;whiteSpace=wrap;connectable=0;fillColor=none;top=0;left=0;bottom=0;right=0;overflow=hidden;fontSize=20;" vertex="1" parent="mlAE84OE1QJgXeSvvqJd-33">
          <mxGeometry x="470" width="470" height="70" as="geometry">
            <mxRectangle width="470" height="70" as="alternateBounds" />
          </mxGeometry>
        </mxCell>
        <mxCell id="mlAE84OE1QJgXeSvvqJd-21" value="" style="shape=tableRow;horizontal=0;startSize=0;swimlaneHead=0;swimlaneBody=0;top=0;left=0;bottom=0;right=0;collapsible=0;dropTarget=0;fillColor=none;points=[[0,0.5],[1,0.5]];portConstraint=eastwest;fontSize=20;" vertex="1" parent="mlAE84OE1QJgXeSvvqJd-20">
          <mxGeometry y="100" width="940" height="70" as="geometry" />
        </mxCell>
        <mxCell id="mlAE84OE1QJgXeSvvqJd-22" value="傷患" style="shape=partialRectangle;html=1;whiteSpace=wrap;connectable=0;fillColor=none;top=0;left=0;bottom=0;right=0;overflow=hidden;fontSize=20;" vertex="1" parent="mlAE84OE1QJgXeSvvqJd-21">
          <mxGeometry width="236" height="70" as="geometry">
            <mxRectangle width="236" height="70" as="alternateBounds" />
          </mxGeometry>
        </mxCell>
        <mxCell id="mlAE84OE1QJgXeSvvqJd-23" value="-" style="shape=partialRectangle;html=1;whiteSpace=wrap;connectable=0;fillColor=none;top=0;left=0;bottom=0;right=0;overflow=hidden;fontSize=20;" vertex="1" parent="mlAE84OE1QJgXeSvvqJd-21">
          <mxGeometry x="236" width="234" height="70" as="geometry">
            <mxRectangle width="234" height="70" as="alternateBounds" />
          </mxGeometry>
        </mxCell>
        <mxCell id="mlAE84OE1QJgXeSvvqJd-24" value="&lt;span style=&quot;color: rgb(0 , 0 , 0) ; font-family: &amp;#34;arial&amp;#34; , &amp;#34;verdana&amp;#34; , &amp;#34;helvetica&amp;#34; , sans-serif ; font-size: 13px ; background-color: rgb(255 , 255 , 255)&quot;&gt;06/02/2022:&lt;br&gt;&lt;/span&gt;&lt;span style=&quot;color: rgb(0 , 0 , 0) ; font-family: &amp;#34;細明體_hkscs,細明體&amp;#34; ; font-size: 13px ; background-color: rgb(255 , 255 , 255)&quot;&gt;表現難以接受，賽後內窺鏡檢查發現氣管內有大量痰液&lt;/span&gt;&lt;span style=&quot;color: rgb(0 , 0 , 0) ; font-family: &amp;#34;arial&amp;#34; , &amp;#34;verdana&amp;#34; , &amp;#34;helvetica&amp;#34; , sans-serif ; font-size: 13px ; background-color: rgb(255 , 255 , 255)&quot;&gt;&lt;br&gt;&lt;/span&gt;" style="shape=partialRectangle;html=1;whiteSpace=wrap;connectable=0;fillColor=none;top=0;left=0;bottom=0;right=0;overflow=hidden;fontSize=20;" vertex="1" parent="mlAE84OE1QJgXeSvvqJd-21">
          <mxGeometry x="470" width="470" height="70" as="geometry">
            <mxRectangle width="470" height="70" as="alternateBounds" />
          </mxGeometry>
        </mxCell>
        <mxCell id="mlAE84OE1QJgXeSvvqJd-37" value="騎師" style="shape=table;startSize=30;container=1;collapsible=0;childLayout=tableLayout;fontStyle=1;align=center;fontSize=20;" vertex="1" parent="1">
          <mxGeometry x="250" y="690" width="940" height="170" as="geometry" />
        </mxCell>
        <mxCell id="mlAE84OE1QJgXeSvvqJd-38" style="shape=tableRow;horizontal=0;startSize=0;swimlaneHead=0;swimlaneBody=0;top=0;left=0;bottom=0;right=0;collapsible=0;dropTarget=0;fillColor=none;points=[[0,0.5],[1,0.5]];portConstraint=eastwest;fontSize=20;" vertex="1" parent="mlAE84OE1QJgXeSvvqJd-37">
          <mxGeometry y="30" width="940" height="70" as="geometry" />
        </mxCell>
        <mxCell id="mlAE84OE1QJgXeSvvqJd-39" value="騎師更改" style="shape=partialRectangle;html=1;whiteSpace=wrap;connectable=0;fillColor=none;top=0;left=0;bottom=0;right=0;overflow=hidden;fontSize=20;" vertex="1" parent="mlAE84OE1QJgXeSvvqJd-38">
          <mxGeometry width="236" height="70" as="geometry">
            <mxRectangle width="236" height="70" as="alternateBounds" />
          </mxGeometry>
        </mxCell>
        <mxCell id="mlAE84OE1QJgXeSvvqJd-40" value="潘頓" style="shape=partialRectangle;html=1;whiteSpace=wrap;connectable=0;fillColor=none;top=0;left=0;bottom=0;right=0;overflow=hidden;fontSize=20;" vertex="1" parent="mlAE84OE1QJgXeSvvqJd-38">
          <mxGeometry x="236" width="234" height="70" as="geometry">
            <mxRectangle width="234" height="70" as="alternateBounds" />
          </mxGeometry>
        </mxCell>
        <mxCell id="mlAE84OE1QJgXeSvvqJd-41" value="潘頓上役已是21年11月&lt;br&gt;期間曾策騎：巴/霍/雷" style="shape=partialRectangle;html=1;whiteSpace=wrap;connectable=0;fillColor=none;top=0;left=0;bottom=0;right=0;overflow=hidden;fontSize=20;" vertex="1" parent="mlAE84OE1QJgXeSvvqJd-38">
          <mxGeometry x="470" width="470" height="70" as="geometry">
            <mxRectangle width="470" height="70" as="alternateBounds" />
          </mxGeometry>
        </mxCell>
        <mxCell id="mlAE84OE1QJgXeSvvqJd-46" style="shape=tableRow;horizontal=0;startSize=0;swimlaneHead=0;swimlaneBody=0;top=0;left=0;bottom=0;right=0;collapsible=0;dropTarget=0;fillColor=none;points=[[0,0.5],[1,0.5]];portConstraint=eastwest;fontSize=20;" vertex="1" parent="mlAE84OE1QJgXeSvvqJd-37">
          <mxGeometry y="100" width="940" height="70" as="geometry" />
        </mxCell>
        <mxCell id="mlAE84OE1QJgXeSvvqJd-47" value="&lt;span&gt;騎師表現&lt;/span&gt;" style="shape=partialRectangle;html=1;whiteSpace=wrap;connectable=0;fillColor=none;top=0;left=0;bottom=0;right=0;overflow=hidden;fontSize=20;" vertex="1" parent="mlAE84OE1QJgXeSvvqJd-46">
          <mxGeometry width="236" height="70" as="geometry">
            <mxRectangle width="236" height="70" as="alternateBounds" />
          </mxGeometry>
        </mxCell>
        <mxCell id="mlAE84OE1QJgXeSvvqJd-48" value="-" style="shape=partialRectangle;html=1;whiteSpace=wrap;connectable=0;fillColor=none;top=0;left=0;bottom=0;right=0;overflow=hidden;fontSize=20;" vertex="1" parent="mlAE84OE1QJgXeSvvqJd-46">
          <mxGeometry x="236" width="234" height="70" as="geometry">
            <mxRectangle width="234" height="70" as="alternateBounds" />
          </mxGeometry>
        </mxCell>
        <mxCell id="mlAE84OE1QJgXeSvvqJd-49" value="過去2個月賽事，在大熱情況下，勝率為XX%" style="shape=partialRectangle;html=1;whiteSpace=wrap;connectable=0;fillColor=none;top=0;left=0;bottom=0;right=0;overflow=hidden;fontSize=20;" vertex="1" parent="mlAE84OE1QJgXeSvvqJd-46">
          <mxGeometry x="470" width="470" height="70" as="geometry">
            <mxRectangle width="470" height="70" as="alternateBounds" />
          </mxGeometry>
        </mxCell>
      </root>
    </mxGraphModel>
  </diagram>
</mxfile>
